<svg id="svg" version="1.1" viewBox="0 0 300 262.7291242362526" width="300" height="262.7291242362526" xmlns="http://www.w3.org/2000/svg"><svg xmlns="http://www.w3.org/2000/svg"><defs><clipPath id="clip-1"><rect x="0" y="0" transform="scale(0.15275,0.15275)" width="1964" height="1720" fill="none"/></clipPath><linearGradient x1="113.94501" y1="206.60591" x2="169.94297" y2="113.27016" gradientUnits="userSpaceOnUse" id="color-1"><stop offset="0" stop-color="#00347f"/><stop offset="1" stop-color="#0586da"/></linearGradient><linearGradient x1="220.67719" y1="236.73574" x2="220.5168" y2="26.08931" gradientUnits="userSpaceOnUse" id="color-2"><stop offset="0" stop-color="#003576"/><stop offset="1" stop-color="#018ca9"/></linearGradient><linearGradient x1="188.37984" y1="107.96166" x2="221.94807" y2="59.31843" gradientUnits="userSpaceOnUse" id="color-3"><stop offset="0" stop-color="#00608a"/><stop offset="1" stop-color="#05a2bf"/></linearGradient><linearGradient x1="73.68758" y1="149.83106" x2="131.34455" y2="26.52525" gradientUnits="userSpaceOnUse" id="color-4"><stop offset="0" stop-color="#015dc1"/><stop offset="1" stop-color="#0ca7e9"/></linearGradient><linearGradient x1="87.58411" y1="230.53564" x2="74.41344" y2="210.71945" gradientUnits="userSpaceOnUse" id="color-5"><stop offset="0" stop-color="#002e71"/><stop offset="1" stop-color="#086fa3"/></linearGradient></defs><g clip-path="url(#clip-1)" fill="none" fill-rule="nonzero" stroke="none" stroke-width="1" stroke-linecap="butt" stroke-linejoin="miter" stroke-miterlimit="10" stroke-dasharray="" stroke-dashoffset="0" font-family="none" font-weight="none" font-size="none" text-anchor="none" style="mix-blend-mode: normal"><path d="M0,0h300v262.72912h-300z" fill="#ffffff"/><path d="M110.40214,203.50356c-1.10224,-0.70265 -3.14374,-2.83656 -4.07536,-3.81568c-7.0416,-7.39308 -12.81477,-17.722 -15.02032,-27.71334c-3.45,-15.47811 -0.6359,-31.69308 7.82795,-45.10372c8.58055,-13.34114 22.09017,-22.74623 37.58019,-26.16263c16.12958,-3.50973 33.26044,-1.13157 47.22785,7.88157c9.14053,5.85428 16.55041,14.04379 21.46589,23.72184c9.35743,18.04384 9.86456,44.0331 -1.72607,61.222c-13.2556,19.65733 -35.8335,28.79175 -59.05524,25.59623l-1.21833,-0.15733c-0.71808,-0.10998 -1.45601,-0.2612 -2.17164,-0.39715c-2.35769,-0.26426 -4.33625,-1.10743 -6.514,-1.72454c-7.15784,-2.0331 -13.81146,-5.12016 -19.73508,-9.66446c-1.50229,-1.15173 -3.18849,-2.3554 -4.58585,-3.68279z" fill="#003c7c"/><path d="M153.64002,128.47607c11.09267,-0.15397 22.22505,0.01955 33.32077,-0.03055c1.70774,-0.00764 3.43075,0.05407 5.13697,-0.03697c2.02393,1.48809 5.15071,6.64308 6.01222,9.08508c-0.18941,1.22933 -0.0336,3.99043 0.00458,5.3641l0.19094,8.05402c0.15733,7.35504 0.19705,14.71298 0.12067,22.0694c-0.00916,3.30397 -0.19399,6.60336 -0.16191,9.89817c0.00153,0.18941 0.32536,0.71334 0.43381,0.89817c-0.46741,1.03106 -1.58096,3.63391 -2.14155,4.4832c-5.51884,8.35387 -15.0947,15.0947 -24.29939,18.63086c-10.31059,3.96232 -20.60896,4.78717 -31.39399,2.93432c-2.0473,-0.70723 -4.19389,-1.24491 -6.27739,-1.96741c-5.92195,-2.01324 -11.41482,-5.11711 -16.19496,-9.15122c-0.12693,-5.22709 0.00443,-11.03004 0.01253,-16.30448c-0.04262,-6.62475 -0.0252,-13.25102 0.05224,-19.87424c3.81309,0.00916 33.31619,0.50713 34.65596,-0.2887c1.03106,-1.90784 0.55601,-9.18941 0.56059,-11.72734c0.03208,-7.34542 0.02138,-14.69099 -0.03208,-22.03641z" fill="#ffffff"/><path d="M164.75713,171.4613c7.22963,-0.2169 14.58452,-0.0168 21.82637,-0.04124c0.83859,-0.00305 2.38747,-0.0336 2.93585,0.67974c0.19246,1.06772 0.4277,2.68686 -0.15733,3.63086c-0.9058,0.58809 -28.91395,0.39868 -32.70214,0.40173c-4.95596,-0.02902 -9.91237,-0.03055 -14.86879,-0.00305c-3.04842,0.01375 -6.52363,0.10845 -9.54211,-0.03055c-0.48788,-1.28004 -1.03717,-3.21232 -0.0695,-4.3778c1.66818,-0.34674 8.46568,-0.19705 10.72317,-0.18941c7.28478,0.06263 14.56986,0.03971 21.85448,-0.07026z" fill="#0d578e"/><path d="M132.50545,182.77393c2.25642,-0.17261 5.83549,-0.03513 8.20799,-0.03208l16.01823,0.00611l13.23574,-0.03666c1.55193,-0.00153 5.81517,-0.09623 7.19908,0.19705c1.00662,0.74236 0.94094,2.44857 0.56059,3.56365c-0.12984,0.38187 -0.72556,0.52699 -1.09521,0.62322c-1.49542,0.06721 -2.99236,0.11151 -4.48931,0.13136l-25.0584,0.11914l-8.96899,0.00153c-1.10835,-0.00458 -5.0667,0.21996 -5.89109,-0.49338c-0.85143,-0.73778 -0.739,-3.23676 0.28136,-4.07994z" fill="#0d578e"/><path d="M132.49674,193.90173c4.061,-0.20621 35.38411,-0.24593 36.47475,0.278c0.21843,0.10387 0.32841,0.41395 0.39257,0.63697c0.22607,0.77902 0.33605,2.59369 -0.08859,3.28411c-0.19246,0.31161 -0.34369,0.29633 -0.67821,0.38798c-2.57077,0.14053 -5.61354,0.03513 -8.22098,0.0168l-12.68615,-0.04582c-2.97999,-0.00764 -5.96013,0.00305 -8.93997,0.0336c-2.0835,0.01833 -4.45387,0.10998 -6.49812,-0.10692c-0.32566,-1.14868 -0.81171,-3.65224 0.2447,-4.48473z" fill="#003c7c"/><path d="M186.60947,148.54674c0.81874,-0.00428 1.9888,-0.15519 2.6334,0.42739c0.52546,0.47505 0.60794,1.18045 0.611,1.8527c0.00153,0.57006 -0.05652,1.43875 -0.5056,1.85362c-1.02495,0.94582 -22.41141,0.53951 -25.47709,0.53798c-3.74389,0.03513 -4.00509,-1.19267 -2.91904,-4.57882c8.40275,-0.17184 17.22403,-0.06003 25.65733,-0.09287z" fill="#0975ac"/><path d="M167.37373,159.69807c3.1665,0.00153 20.05143,-0.29022 21.78208,0.42312c0.58503,0.63391 0.91039,3.39104 0.2169,3.75764c-1.36711,0.72403 -4.12729,0.45061 -5.73116,0.43839l-14.00407,0.02902c-2.42261,0.00611 -5.73574,0.15275 -8.11253,-0.20621c-1.37933,-0.20774 -0.67821,-3.32994 -0.41701,-4.30143c2.03004,-0.14511 4.21894,-0.12373 6.26578,-0.14053z" fill="#0975ac"/><path d="M111.75642,191.40733c0.17841,-0.79735 -0.09027,-7.4557 -0.09302,-8.80601l-0.01543,-30.09455c0.00321,-4.68834 -0.00504,-9.38142 -0.0058,-14.08564c-0.00076,-4.30112 3.02933,-5.75545 5.46645,-8.68366c2.06884,-2.62363 3.68844,-5.14491 7.26981,-5.69878c4.96054,-0.76741 10.30173,-0.44557 15.35774,-0.45947l33.72006,-0.01527c3.78513,0.00107 7.57332,-0.01558 11.35845,0.08523c0.96385,0.02566 1.92617,0.09364 2.88697,0.00687c1.46334,0.74084 3.41701,3.29633 4.34725,4.70239c0.0168,0.0168 0.03208,0.03345 0.04888,0.0501c-1.70621,0.09104 -3.42923,0.02933 -5.13697,0.03697c-11.09572,0.0501 -22.22811,-0.12342 -33.32077,0.03055c0.05346,7.34542 0.06415,14.69099 0.03208,22.03641c-0.00458,2.53793 0.47047,9.8195 -0.56059,11.72734c-1.33977,0.79582 -30.84287,0.29786 -34.65596,0.2887c-0.07744,6.62322 -0.09486,13.24949 -0.05224,19.87424c-0.0081,5.27444 -0.13946,11.07739 -0.01253,16.30448c4.78014,4.03411 10.27301,7.13798 16.19496,9.15122c2.0835,0.72251 4.23009,1.26018 6.27739,1.96741c1.34817,1.33809 9.97714,1.02037 12.21018,1.45265c0.47352,0.09012 1.70774,-0.22149 2.35081,-0.06568c-1.00051,0.8279 -5.59231,-0.29175 -5.87979,2.28055c-0.05789,0.51782 0.24684,1.64817 -0.11502,1.84216c-0.9721,0.51935 -1.51864,0.78055 -2.04379,1.72301c-0.09577,0.17261 -1.23574,0.10692 -1.60356,0.44297l0.32872,0.94857c-0.90535,0.3055 -0.56059,-0.19705 -1.52169,0.40784l0.03803,0.27189l-1.21833,-0.15733c-0.71808,-0.10998 -1.45601,-0.2612 -2.17164,-0.39715c-2.35769,-0.26426 -4.33625,-1.10743 -6.514,-1.72454c-7.15784,-2.0331 -13.81146,-5.12016 -19.73508,-9.66446c-1.50229,-1.15173 -3.18849,-2.3554 -4.58585,-3.68279c0.10647,-0.51324 -1.14577,-1.31976 -1.74043,-1.95519c-1.80504,-1.972 -4.0471,-4.28615 -5.29919,-6.62475c-0.12923,-0.24134 0.62337,-1.38544 0.21584,-2.25458c-0.43136,-0.92108 -0.42037,-2.18126 -0.37133,-3.19246c0.52225,0.03819 1.20642,-0.00305 1.74257,-0.01986c0.58259,-0.53615 0.2664,-0.74084 0.67515,-1.15784c1.07307,0.33147 2.31706,0.15886 2.30423,-1.19297c0.68951,0.38493 3.62673,4.30906 3.88518,4.99033c0.06461,-0.34521 0.0223,-0.31161 -0.05774,-0.6889z" fill="url(#color-1)"/><path d="M141.23707,218.57536c0.99119,-0.34521 1.43951,-0.35132 2.45499,-0.13747l0.3223,0.25051l-0.00703,0.13442l-0.59863,0.14969c-0.71808,-0.10998 -1.45601,-0.2612 -2.17164,-0.39715z" fill="#003c7c"/><path d="M132.59007,134.55031c2.53702,-0.02795 5.07434,-0.0081 7.61059,0.05957c-0.00336,2.11711 0.04735,4.23376 0.15214,6.34827l6.7558,0.10616l-0.01711,7.44241c-2.10122,0.01207 -4.7942,0.17184 -6.79491,0.0359c-0.07271,2.20616 -0.17979,4.41156 -0.32123,6.61421c-1.68681,0.12831 -5.23656,-0.00916 -7.02739,-0.0336c-0.13304,-2.20265 -0.2166,-4.40881 -0.25051,-6.61543c-2.37678,0.05774 -4.75494,0.0026 -7.12653,-0.16543c-0.03605,-2.43987 -0.0501,-4.88004 -0.04231,-7.32021l7.03671,-0.15611z" fill="#ffffff"/><path d="M111.75642,191.40733c-6.72266,-10.29837 -6.36461,-10.78564 -6.41273,-22.65428c-0.04537,-5.94654 -0.0388,-11.8946 0.0194,-17.84145c0.02261,-3.36049 -0.36645,-11.86115 0.32169,-14.44048c0.78544,-2.9444 3.46054,-6.12907 5.3664,-8.47637c8.81013,-10.85025 19.44822,-16.80748 33.45137,-18.26181c16.65428,-1.72974 30.39562,3.54761 43.19908,13.92312c-0.96079,0.08676 -1.92312,0.01879 -2.88697,-0.00687c-3.78513,-0.10081 -7.57332,-0.08416 -11.35845,-0.08523l-33.72006,0.01527c-5.05601,0.0139 -10.3972,-0.30794 -15.35774,0.45947c-3.58136,0.55387 -5.20097,3.07515 -7.26981,5.69878c-2.43712,2.92821 -5.46721,4.38254 -5.46645,8.68366c0.00076,4.70423 0.00901,9.3973 0.0058,14.08564l0.01543,30.09455c0.00275,1.35031 0.27144,8.00866 0.09302,8.80601z" fill="#ffffff"/><path d="M198.10998,137.49364c6.38646,12.39364 7.56874,26.82205 3.28717,40.08987c-0.40937,1.26477 -1.95672,5.21487 -2.69908,6.19399c-0.10845,-0.18483 -0.43228,-0.70876 -0.43381,-0.89817c-0.03208,-3.29481 0.15275,-6.5942 0.16191,-9.89817c0.07637,-7.35642 0.03666,-14.71436 -0.12067,-22.0694l-0.19094,-8.05402c-0.03819,-1.37368 -0.19399,-4.13478 -0.00458,-5.3641z" fill="#88cfe1"/><path d="M166.63595,54.80759c0.05193,-4.22994 0.04124,-8.46049 -0.03208,-12.68997c-0.02138,-2.84511 -0.20468,-5.91965 0.32077,-8.70428c0.25815,-1.13875 0.99593,-2.24038 1.84369,-3.0165c7.72301,-7.06986 20.01477,-5.24267 26.95112,1.96466c1.26018,1.3086 3.80957,4.91029 4.27546,6.64246c4.91853,0.236 10.28615,0.98172 14.85031,2.70855c12.72556,4.81344 23.5112,15.30397 27.24593,28.55591c0.88595,3.14389 1.75967,4.76029 1.92464,8.25305c16.68177,9.07332 27.65988,27.08386 26.30193,46.19206c-0.14817,2.09068 -0.58656,4.37948 -0.61253,6.41441c6.76222,12.83982 6.82026,26.91431 -0.5056,39.52683c-2.33401,4.01884 -4.85591,6.71029 -8.19807,9.87984c-0.03666,2.41344 -0.09165,4.83299 -0.52393,7.22352c-2.23473,12.35743 -12.51782,21.84623 -24.74236,24.04277c-1.04633,0.18788 -2.19807,0.37729 -3.25204,0.42006c-3.8722,7.24796 -9.18941,11.99542 -17.09267,14.75866c-3.31925,1.15937 -10.26782,1.71385 -13.7612,1.24949l-0.46436,-0.05957c-2.97862,2.93585 -4.9109,5.17363 -8.80906,7.10438c-8.59674,4.25866 -18.86151,0.93635 -23.25611,-7.59165c-0.49796,-0.96385 -0.90122,-2.25611 -1.26018,-3.32383c2.84725,-0.66904 5.84725,-1.30295 8.61354,-2.19654c1.72912,-0.55906 3.50866,-1.44196 5.15682,-2.13086c12.15886,-5.08198 22.14257,-14.77699 28.83758,-26.01171c1.54124,-2.58758 2.85183,-4.64206 4.02342,-7.54277c7.28615,0.09165 14.73574,0.01527 22.04175,0.0443c1.28462,3.5942 4.85132,5.62882 8.52648,4.24033c1.77495,-0.65835 3.2001,-2.01935 3.94246,-3.76222c2.53106,-5.84725 -3.50102,-10.86965 -8.97862,-8.19043c-1.57179,0.76986 -2.74644,1.58707 -3.17872,3.4109c-7.03411,0.20316 -14.07281,0.20316 -21.10692,-0.00153c2.07587,-4.96741 3.1665,-12.63544 3.65988,-17.96945l6.58961,0.12678c2.09725,5.82587 10.4832,6.00458 12.95468,0.29633c1.38086,-3.18635 -0.65988,-7.07536 -3.72709,-8.53259c-4.36405,-1.68635 -6.67668,0.70723 -8.97556,3.7668c-2.13086,0.23523 -4.79328,0.17261 -6.98676,0.19246c-0.16802,-5.42261 -0.95468,-13.60784 -2.57077,-18.80759c5.35387,-0.1584 10.71232,-0.15046 16.06466,0.02337c0.51018,0.61329 1.06772,1.21726 1.64969,1.76258c2.98167,2.79868 5.83809,5.91584 8.79226,8.71925c0.03055,1.73875 0.10998,3.07989 0.8279,4.70209c1.84063,4.16701 7.93381,5.16446 11.01171,1.70621c1.2556,-1.43432 1.88798,-3.31008 1.75815,-5.21181c-0.27342,-3.70662 -3.5942,-6.68401 -7.30906,-6.21935c-1.66497,0.20804 -2.68534,0.57403 -4.16853,1.3193c-2.16752,-2.77531 -8.08045,-8.51135 -10.85896,-10.853c-6.33452,-0.35606 -12.75916,0.00046 -19.07994,0.06843c-2.84114,-8.47867 -7.41446,-16.27424 -13.42821,-22.89241c5.63798,-5.04608 11.37831,-11.55764 17.03615,-16.78381c2.74185,-0.2748 9.83859,-0.23325 12.7332,-0.14358c0.72251,1.7916 1.12576,2.3331 2.42719,3.76848c0.83554,0.63513 1.6558,1.22307 2.60591,1.68926c4.12271,2.02317 9.17872,-0.54669 10.88493,-4.58172c0.56976,-1.34588 0.60642,-2.46721 0.59878,-3.90367c-0.60031,-2.62515 -0.9776,-3.5192 -2.90224,-5.61431c-6.23829,-4.18106 -10.84827,-1.81054 -14.01018,4.43737c-4.44654,0.02551 -9.46741,-0.07256 -13.86507,0.12144c-4.8666,4.84353 -9.92413,9.44679 -14.61202,14.47225c-1.13646,1.21864 -2.29124,2.50311 -3.52851,3.61298c-7.57485,-8.28697 -21.80041,-15.6692 -32.6609,-17.93951c-0.11456,-5.76721 0.00305,-11.97617 0.05652,-17.76263c3.76527,0.07332 7.91242,-0.02169 11.70214,-0.04063l23.28513,-0.15168c-0.0336,-1.30127 -0.02291,-2.67663 -0.0336,-3.98386c-4.3778,-0.19766 -9.06874,-0.13228 -13.47098,-0.14114l-21.51935,0.01253c-0.00458,-4.13111 0.0168,-8.26222 0.06568,-12.39302c6.91191,0.02032 14.03768,0.14588 20.92515,0.0391c0.5224,1.51146 1.72149,2.93615 3.08248,3.76864c1.37933,0.83921 3.03513,1.09323 4.60234,0.70601c3.82485,-0.9359 6.35896,-4.73676 5.25,-8.58452c-0.94552,-3.28442 -4.81314,-5.74201 -8.15835,-4.64801c-2.19196,0.71624 -3.74695,2.47408 -4.73065,4.4696c-4.55193,-0.05575 -9.10692,-0.05148 -13.65886,0.01314c-2.01935,0.01527 -5.50204,0.13304 -7.39002,-0.04644z" fill="url(#color-2)"/><path d="M166.63595,54.80759c0.32077,-0.19292 0.41548,-0.28106 0.78208,-0.36034c1.12882,0.46802 9.11303,0.01787 10.9109,0.02459c-3.50407,-0.62322 -6.14969,-1.06191 -7.49084,-4.95305c-0.91344,-2.65265 -2.46232,-6.89526 -1.82536,-9.69669c0.11609,-0.51339 1.98574,-3.6721 2.41955,-3.86151l0.13442,0.2334c0.33147,-0.31802 0.53768,-1.30158 0.79888,-1.75754c1.54888,-2.69725 6.29786,-4.38681 9.19857,-3.75061c4.32892,0.2942 7.84521,3.55097 10.01426,7.08559c1.36864,2.11925 2.56466,5.3221 2.90377,7.80076c1.86354,-0.15443 9.27342,-0.26212 10.82688,0.0915c8.08961,0.25005 17.35234,5.59353 22.72149,11.51945c1.32128,1.45815 3.55601,4.07077 4.22047,5.87383c2.33096,4.16441 3.83859,8.48737 2.6502,13.07337c-0.17719,0.68523 -0.92413,3.24623 -0.49185,3.6721l0.20621,0.03162c1.778,0.28793 4.28462,1.43111 5.99084,2.24924c9.93177,4.75922 20.43483,18.5664 12.84165,29.31217c-0.48574,0.68783 -1.55346,1.31808 -1.81466,2.10367l-0.29481,-0.14847c0.09165,-0.92398 2.57077,-1.65611 2.20723,-3.34949c-3.46436,-2.15056 -6.98065,-4.24781 -10.16242,-6.79216c-0.16955,-0.13564 -1.93075,0.69043 -2.21792,0.72464c-2.35998,0.06782 -5.42566,-0.49338 -7.0555,-2.3638l0.00764,-0.31344c0.83554,0.63513 1.6558,1.22307 2.60591,1.68926c4.12271,2.02317 9.17872,-0.54669 10.88493,-4.58172c0.56976,-1.34588 0.60642,-2.46721 0.59878,-3.90367c-0.60031,-2.62515 -0.9776,-3.5192 -2.90224,-5.61431c-6.23829,-4.18106 -10.84827,-1.81054 -14.01018,4.43737c-4.44654,0.02551 -9.46741,-0.07256 -13.86507,0.12144c-4.8666,4.84353 -9.92413,9.44679 -14.61202,14.47225c-1.13646,1.21864 -2.29124,2.50311 -3.52851,3.61298c-7.57485,-8.28697 -21.80041,-15.6692 -32.6609,-17.93951c-0.11456,-5.76721 0.00305,-11.97617 0.05652,-17.76263c3.76527,0.07332 7.91242,-0.02169 11.70214,-0.04063l23.28513,-0.15168c-0.0336,-1.30127 -0.02291,-2.67663 -0.0336,-3.98386c-4.3778,-0.19766 -9.06874,-0.13228 -13.47098,-0.14114l-21.51935,0.01253c-0.00458,-4.13111 0.0168,-8.26222 0.06568,-12.39302c6.91191,0.02032 14.03768,0.14588 20.92515,0.0391c0.5224,1.51146 1.72149,2.93615 3.08248,3.76864c1.37933,0.83921 3.03513,1.09323 4.60234,0.70601c3.82485,-0.9359 6.35896,-4.73676 5.25,-8.58452c-0.94552,-3.28442 -4.81314,-5.74201 -8.15835,-4.64801c-2.19196,0.71624 -3.74695,2.47408 -4.73065,4.4696c-4.55193,-0.05575 -9.10692,-0.05148 -13.65886,0.01314c-2.01935,0.01527 -5.50204,0.13304 -7.39002,-0.04644z" fill="url(#color-3)"/><path d="M217.49084,64.36787c2.27138,-1.32938 4.25102,-2.09756 6.91955,-1.41186c2.25764,0.56135 4.18992,2.01507 5.35692,4.02831c0.36049,0.63788 0.65835,1.34252 0.94246,2.01843c0.04735,0.16909 0.09318,0.33849 0.13595,0.5085c1.5779,5.99786 -4.30601,10.93763 -10.00815,9.86151c-1.65122,-0.31191 -2.94196,-1.17113 -4.34725,-2.02576c-4.65428,3.91497 -9.08096,8.65463 -13.55041,12.81156c-0.54837,0.50988 -1.05397,1.13325 -1.45723,1.76578c-5.83961,-0.14496 -11.67923,-0.14465 -17.51731,0.00107l-0.03513,-4.1027c4.96894,0.01787 10.35642,0.13961 15.29175,-0.01466c0.15122,-0.12632 0.30092,-0.25448 0.44908,-0.38447c1.86813,-1.63503 13.75356,-12.93147 14.28819,-14.03539c0.43686,-0.90214 -0.01527,-2.32805 0.07332,-3.33315c0.20774,-2.37067 1.73676,-4.18274 3.45825,-5.68717z" fill="#ffffff"/><path d="M221.22862,68.3696c1.4832,-0.56303 3.14511,0.16451 3.73778,1.63656c0.59114,1.47205 -0.10234,3.14756 -1.56263,3.7694c-0.96996,0.41334 -2.08809,0.26991 -2.92363,-0.37531c-0.83554,-0.64506 -1.2556,-1.69109 -1.10132,-2.73452c0.1558,-1.04358 0.86303,-1.92189 1.8498,-2.29613z" fill="#0fa3d5"/><path d="M205.30906,45.6637c8.08961,0.25005 17.35234,5.59353 22.72149,11.51945c1.32128,1.45815 3.55601,4.07077 4.22047,5.87383c0.10998,1.84674 2.35234,4.72347 2.37525,6.7335l-0.14358,0.11166l-0.04124,-0.24959c-0.7164,0.30336 -0.278,1.0723 -1.23269,1.10331c-0.48269,0.01558 -0.9944,0.75901 -1.6558,0.84073c-0.33758,-0.87892 -0.28106,-1.82276 -0.66904,-2.87154l-0.17413,0.2777c-0.28411,-0.67592 -0.58198,-1.38055 -0.94246,-2.01843c-1.16701,-2.01324 -3.09929,-3.46696 -5.35692,-4.02831c-2.66853,-0.68569 -4.64817,0.08248 -6.91955,1.41186c-0.34827,-0.23432 -0.16191,-0.17047 -0.5835,-0.19521c-0.35438,0.24638 -0.46894,0.36629 -0.89969,0.43534c-0.64308,-0.35331 -1.75662,-1.98788 -2.33401,-2.66792c-1.49695,-1.76731 -5.73116,-4.16074 -6.21385,-6.22653c-0.25356,0.12648 -0.11914,0.09364 -0.40631,0.09608c-2.17515,-1.99048 -4.7612,-4.19496 -6.03819,-6.8971c-0.51324,-1.08544 -0.16955,-1.94099 -0.7668,-2.74277l0.05499,-0.26456c0.52699,-0.40036 3.73931,-0.12021 4.82383,-0.22301z" fill="#0fa3d5"/><path d="M181.56415,30.68585c4.32892,0.2942 7.84521,3.55097 10.01426,7.08559c-0.45214,0.89465 -0.04277,2.10596 -0.36049,3.13961c-0.24287,0.79033 -0.95774,4.10973 -2.06365,3.84027c-0.36049,-1.39048 -1.02495,-0.93223 -1.35031,-1.90036c-0.4277,0.02872 -0.47047,0.04521 -0.90733,-0.0307l-0.10998,-0.26746l-0.472,-0.13717l-0.14206,-0.31191l-0.29175,0.08203c-0.20316,-0.37393 -1.65275,-1.68727 -2.09572,-1.91533c-1.86354,-0.96049 -5.21029,-7.6804 -3.95163,-9.37729c0.4888,-0.23982 1.1609,-0.19246 1.73065,-0.20728z" fill="#0fa3d5"/><path d="M245.30499,88.84598c1.21741,0.0973 1.4832,1.74868 2.07587,2.13559l0.10387,-0.20866c-0.13289,-0.28595 -0.0443,-0.16573 -0.25204,-0.36843l0.08248,-0.28992c0.78513,0.05698 1.52291,0.38478 1.41293,1.24659c-0.2276,0.29114 -0.42312,0.54119 -0.67363,0.81706c-0.14053,0.54379 0.3223,1.19221 0.15275,2.28208c-0.60031,-2.62515 -0.9776,-3.5192 -2.90224,-5.61431z" fill="#0fa3d5"/><path d="M249.71029,114.00519c0.64002,0.01421 1.27393,0.12587 1.88035,0.33131c2.45316,0.83554 4.33503,2.43116 5.44857,4.78182c0.97149,2.06487 1.06161,4.436 0.24745,6.56823c-2.72963,7.30326 -12.76222,6.77398 -15.85387,-0.44603l-10.81925,0.06813c-4.49542,0.01115 -8.99084,-0.02887 -13.48473,-0.12006c0.05957,-1.36879 -0.00458,-2.72062 -0.07179,-4.08635c7.89868,-0.2195 16.18534,-0.0585 24.11914,-0.01604c1.44959,-4.14837 4.10896,-6.53187 8.53411,-7.08101z" fill="#ffffff"/><path d="M249.0779,119.61247c0.65682,-0.01909 1.2831,0.02413 1.87424,0.34842c0.73167,0.40036 1.27088,1.07826 1.49847,1.8808c0.55601,1.98269 -0.75611,3.08585 -2.528,3.46665c-4.26477,-0.30687 -4.94297,-4.49328 -0.8447,-5.69588z" fill="#0975ac"/><path d="M210.59267,212.81517c0.21079,-0.01375 0.42312,-0.02444 0.63544,-0.0336c3.53921,-0.14053 7.5443,1.47098 10.14257,3.87373c-4.31517,3.64613 -10.41599,4.5168 -15.88442,4.58248c-5.13697,-0.15733 -7.0387,-1.11049 -11.47454,-3.17108c2.80448,-1.29073 5.68228,-1.8834 8.6166,-2.8167c2.63493,-0.83859 5.24847,-1.9109 7.96436,-2.43483z" fill="#0d578e"/><path d="M218.05295,195.62016c3.60336,-0.80346 7.17923,1.44654 8.01629,5.04226c0.83707,3.59572 -1.37933,7.1945 -4.96589,8.06517c-3.63544,0.88136 -7.29379,-1.37016 -8.14155,-5.01477c-0.84776,-3.64308 1.4389,-7.27851 5.09114,-8.09267z" fill="#ffffff"/><path d="M101.71879,27.99577c4.3998,-0.28488 9.91711,-0.14725 14.43208,-0.15367c8.7307,-0.03254 17.46141,-0.01955 26.19196,0.03926c5.06349,0.03147 11.20249,0.20774 16.22337,0.03437l0.02138,25.04343c0.00305,3.55891 0.12831,7.45922 0.06263,10.97658l-0.10234,28.3164c-3.64613,-0.24272 -7.23422,-0.45718 -10.89043,-0.28686c-14.10718,0.60474 -27.68783,5.52923 -38.90377,14.10687c-14.20922,10.8944 -23.41268,27.06904 -25.5197,44.84969l-0.13411,-0.00107c-3.77673,-0.06415 -10.57469,-1.68666 -14.10367,-3.00871c-4.39598,-1.64679 -9.59099,-5.1721 -12.89252,-8.55687c-10.09659,-10.35122 -9.49048,-22.50076 -9.4277,-35.93035c-0.00168,-6.51813 0.03987,-13.03595 0.12449,-19.55346l47.3305,-0.02459c-0.08768,-11.80983 -0.0918,-23.62011 -0.01207,-35.42994l-0.04506,-8.62989c-0.01054,-1.39796 -0.09913,-4.44791 0.16451,-5.73238c0.13992,-1.07612 0.41166,-1.66436 0.99608,-2.54252c0.97744,-2.21853 4.22505,-3.41533 6.48437,-3.51629z" fill="url(#color-4)"/><path d="M101.71879,27.99577c4.3998,-0.28488 9.91711,-0.14725 14.43208,-0.15367c8.7307,-0.03254 17.46141,-0.01955 26.19196,0.03926c5.06349,0.03147 11.20249,0.20774 16.22337,0.03437l0.02138,25.04343c0.00305,3.55891 0.12831,7.45922 0.06263,10.97658l-0.05804,-0.0026c-0.38493,-0.41212 -0.12678,-3.81293 -0.62627,-4.48396l-0.42312,0.06675l-0.10845,-0.64812c-0.63086,-0.63238 -2.54633,-1.0251 -3.50407,-1.76762c-0.20163,0.25998 -0.1833,0.24577 -0.47811,0.39073c-1.77403,-1.05718 -3.51843,-2.58254 -5.2778,-3.77872c-2.82327,-1.91945 -8.54618,-3.46451 -10.88187,-5.52419l0.03131,-0.28686c0.35682,-0.30779 0.62398,-0.51706 1.00662,-0.79231c-0.96247,-0.83355 -1.85041,-1.68865 -2.83686,-2.58437c-4.15586,-3.77261 -10.52138,-3.53875 -15.49582,-5.82251c-0.18437,-0.08478 -0.11395,-0.33345 -0.10998,-0.49124c1.15143,-1.20855 6.11319,0.03803 7.40988,-0.93727c-0.04033,-0.81477 0.04873,-0.01237 -0.53142,-0.55234c0.05392,-1.0697 0.47291,-0.81492 0.0278,-1.78136c1.07658,-3.80148 3.96584,-6.37561 7.97673,-6.70081c-0.83707,-0.1558 -3.34017,-0.07317 -4.3387,-0.07164l-8.93966,0.01023l-12.17322,0.01222c-2.30621,-0.00687 -4.72149,-0.06584 -7.0138,0.05087c-0.36202,0.01848 -0.14542,0.03865 -0.58656,-0.24486z" fill="#0fa3d5"/><path d="M95.23442,31.51207c0.13549,0.32368 0.1277,0.30122 0.12235,0.65331l-0.00397,-0.11899c0.20942,-0.15367 0.37729,-0.3333 0.55051,-0.52622l0.30458,0.01436c0.22026,0.68065 -0.06614,0.84745 -0.52133,1.36772c0.08982,0.70005 0.16359,0.72006 0.71578,1.2553c-0.09043,0.92581 -1.07459,1.27515 -1.23223,2.64516l-0.28625,0.16237c-0.40265,-0.33834 -0.3278,-0.78834 -0.40983,-1.44287c-0.05117,0.29954 -0.00932,0.42663 -0.1613,0.56013c-0.01879,-0.63055 -0.01909,-1.41263 -0.07439,-2.02775c0.13992,-1.07612 0.41166,-1.66436 0.99608,-2.54252z" fill="#0fa3d5"/><path d="M31.81665,96.45031c9.57021,-0.85188 7.18228,2.27169 7.4447,9.57678c0.33238,9.2554 0.86258,20.17668 4.63656,28.76365c1.43936,3.22118 3.34628,6.21232 5.65906,8.87673c9.43503,10.95474 19.89883,12.63803 33.55097,13.67673c-0.04246,4.04939 0.22439,8.43788 0.43075,12.5056c-8.55962,0.1222 -14.31278,0.54532 -22.91991,-1.91548c0.5001,12.37271 3.48483,17.88086 12.31359,26.16752c1.72912,1.55041 4.23926,4.13187 5.93783,5.44705c-2.99695,2.16141 -6.39929,5.76782 -9.5638,8.13544c-7.00158,-5.861 -12.54089,-11.34776 -16.82459,-19.47862c-3.59511,-6.82485 -4.43966,-13.97811 -5.04104,-21.57587c-0.14343,-1.81161 -0.36828,-3.93635 -0.75122,-5.69603c-0.77047,-0.60794 -1.52612,-1.23574 -2.26619,-1.88035c-18.31207,-16.0917 -18.8806,-37.20168 -18.70891,-59.66456c0.0249,-3.26853 3.83997,-2.83656 6.10219,-2.93859z" fill="#003c7c"/><path d="M93.95728,195.01375c1.58615,2.50815 3.24669,4.27088 5.17485,6.50866c0.59221,0.68585 1.90127,2.17974 2.36319,2.90988c2.45789,3.11609 3.3669,4.66802 5.17974,8.05906c-3.386,3.14511 -6.97332,5.89308 -10.48213,8.86405c-4.75662,4.02495 -9.41624,8.14613 -14.20983,12.15733c-4.16319,3.48422 -7.21253,7.59165 -13.2776,7.27699c-6.16115,-0.33147 -11.04761,-5.02546 -10.4748,-11.35845c0.32612,-3.67363 1.37612,-5.27749 4.10911,-7.64206l10.94465,-9.42312c0.57816,-0.50713 3.84638,-3.53921 4.20855,-3.76375c1.56843,-1.44959 6.54837,-5.80295 8.17714,-6.9669c1.08299,-1.36405 6.60916,-5.76171 8.28712,-6.62169z" fill="url(#color-5)"/><path d="M93.95728,195.01375c1.58615,2.50815 3.24669,4.27088 5.17485,6.50866c0.59221,0.68585 1.90127,2.17974 2.36319,2.90988c-1.2692,2.03462 -3.2586,3.56823 -5.28101,4.84216c-0.71059,0.52088 -1.37856,1.08605 -2.01874,1.69094c-2.90484,2.74644 -5.92531,5.27291 -9.01466,7.80397c0.72648,-0.84318 1.8805,-1.81619 2.39878,-2.69145c-0.22408,-0.74084 -4.43371,-4.02953 -5.18172,-4.86813c-0.99791,-1.11965 -0.14297,-3.53462 0.05468,-5.2332c0.67775,-0.54684 1.49404,-1.10591 2.20692,-1.63289l-0.8916,0.26273c0.12052,-0.20163 0.08203,-0.13595 0.12403,-0.38187l-0.51415,-0.06415c-0.02261,-0.61864 1.81054,-1.20519 2.29231,-2.52495c1.08299,-1.36405 6.60916,-5.76171 8.28712,-6.62169z" fill="#0975ac"/><path d="M93.95728,195.01375c1.58615,2.50815 3.24669,4.27088 5.17485,6.50866c0.59221,0.68585 1.90127,2.17974 2.36319,2.90988c-1.2692,2.03462 -3.2586,3.56823 -5.28101,4.84216c-0.95514,-2.09572 -3.78773,-8.10031 -6.98875,-6.86914c-1.46441,0.56365 -2.69557,1.38849 -4.32021,1.86813l-0.24577,0.07026l-0.8916,0.26273c0.12052,-0.20163 0.08203,-0.13595 0.12403,-0.38187l-0.51415,-0.06415c-0.02261,-0.61864 1.81054,-1.20519 2.29231,-2.52495c1.08299,-1.36405 6.60916,-5.76171 8.28712,-6.62169z" fill="#0d578e"/><path d="M77.49302,208.60234c1.56843,-1.44959 6.54837,-5.80295 8.17714,-6.9669c-0.48177,1.31976 -2.31492,1.90631 -2.29231,2.52495l0.51415,0.06415c-0.04201,0.24593 -0.00351,0.18024 -0.12403,0.38187c-1.54216,1.08452 -4.4945,3.83248 -6.27495,3.99593z" fill="#003c7c"/><path d="M75.55738,26.46477c1.12347,-0.15489 2.26787,-0.01894 3.32368,0.39486c3.90596,1.50382 5.64577,5.80631 4.08758,9.62245c-0.71731,1.78136 -2.1197,3.20041 -3.89252,3.9388c-2.89491,1.18411 -9.34567,1.53254 -12.59099,2.20265c-1.91197,0.39486 -3.21415,-1.12133 -3.88136,-2.81792c-5.47393,1.93549 -10.54995,5.09129 -14.45285,9.42052c-2.8164,3.16711 -5.12902,6.74847 -6.85692,10.61838c-4.59822,10.10881 -4.53559,17.93111 -3.95789,28.8918c0.0414,0.47887 0.13992,0.95682 -0.05346,1.38116c-3.01298,0.09165 -6.48819,0.0779 -9.45367,0.47398c-0.23829,-2.22449 -0.21706,-4.65412 -0.21018,-6.9029c0.03391,-11.05784 2.46706,-21.63788 8.49043,-31.01808c4.62342,-7.2 10.64786,-12.88564 18.39211,-16.55255c2.31034,-1.09399 4.01365,-1.90723 6.58396,-2.44277c0.00076,-0.0472 0.00153,-0.0944 0.00244,-0.1416l0.00916,-0.236c0.07103,-2.37587 1.58936,-3.54929 3.74328,-3.97592c3.4998,-0.69333 7.25239,-2.30362 10.71721,-2.85687z" fill="#003c7c"/><path d="M111.97729,215.20418c2.1414,1.71385 5.47928,3.54073 7.96482,4.71232c12.54302,5.91141 23.64516,7.75815 37.38223,7.62678c0.00611,3.82485 -0.01375,7.64969 -0.06263,11.47454c-3.14053,0.01986 -6.96217,-0.07485 -10.0723,-0.29786c-3.08096,-0.42159 -6.19323,-0.63391 -9.2583,-1.17312c-7.22887,-1.27393 -13.71874,-2.88238 -20.51991,-5.6945c-5.65815,-2.34012 -10.86752,-4.37322 -16.16517,-7.60234c3.12953,-2.10336 7.66757,-6.42312 10.73126,-9.04582z" fill="#003c7c"/><path d="M238.94145,92.12566c3.84623,-0.21293 5.54786,4.54262 1.2113,5.77393c-3.84012,0.0417 -5.38289,-3.88152 -1.2113,-5.77393z" fill="#0fa3d5"/></g></svg></svg>